<svg width="314" height="311" viewBox="0 0 314 311" fill="none" xmlns="http://www.w3.org/2000/svg">
<path d="M300.035 304.985C300.062 302.223 302.323 300.007 305.085 300.035C307.846 300.063 310.062 302.323 310.034 305.085C310.007 307.846 307.746 310.062 304.985 310.034C302.223 310.007 300.007 307.746 300.035 304.985Z" fill="url(#paint0_linear_555_278)"/>
<path d="M300.235 284.986C300.263 282.224 302.523 280.008 305.285 280.036C308.046 280.063 310.262 282.324 310.234 285.086C310.207 287.847 307.946 290.063 305.185 290.035C302.423 290.008 300.207 287.747 300.235 284.986Z" fill="url(#paint1_linear_555_278)"/>
<path d="M300.435 264.987C300.462 262.225 302.723 260.009 305.484 260.037C308.246 260.064 310.462 262.325 310.434 265.087C310.407 267.848 308.146 270.064 305.384 270.036C302.623 270.009 300.407 267.748 300.435 264.987Z" fill="url(#paint2_linear_555_278)"/>
<path d="M300.634 244.988C300.662 242.226 302.923 240.01 305.684 240.038C308.445 240.065 310.662 242.326 310.634 245.088C310.606 247.849 308.345 250.065 305.584 250.037C302.823 250.01 300.607 247.749 300.634 244.988Z" fill="url(#paint3_linear_555_278)"/>
<path d="M300.835 224.989C300.862 222.227 303.123 220.011 305.884 220.039C308.646 220.066 310.862 222.327 310.834 225.089C310.807 227.85 308.546 230.066 305.784 230.038C303.023 230.011 300.807 227.75 300.835 224.989Z" fill="url(#paint4_linear_555_278)"/>
<path d="M301.034 204.99C301.062 202.228 303.323 200.012 306.084 200.04C308.845 200.067 311.061 202.328 311.034 205.09C311.006 207.851 308.745 210.067 305.984 210.039C303.223 210.012 301.007 207.751 301.034 204.99Z" fill="url(#paint5_linear_555_278)"/>
<path d="M301.234 184.991C301.262 182.229 303.523 180.013 306.284 180.041C309.046 180.068 311.262 182.329 311.234 185.09C311.206 187.852 308.946 190.068 306.184 190.04C303.423 190.013 301.207 187.752 301.234 184.991Z" fill="url(#paint6_linear_555_278)"/>
<path d="M301.434 164.992C301.462 162.23 303.723 160.014 306.484 160.042C309.245 160.069 311.461 162.33 311.434 165.091C311.406 167.853 309.145 170.069 306.384 170.041C303.623 170.014 301.407 167.753 301.434 164.992Z" fill="url(#paint7_linear_555_278)"/>
<path d="M301.634 144.993C301.662 142.231 303.922 140.015 306.684 140.043C309.445 140.07 311.661 142.331 311.633 145.092C311.606 147.854 309.345 150.07 306.584 150.042C303.822 150.015 301.606 147.754 301.634 144.993Z" fill="url(#paint8_linear_555_278)"/>
<path d="M301.834 124.993C301.862 122.232 304.123 120.016 306.884 120.044C309.645 120.071 311.861 122.332 311.834 125.093C311.806 127.855 309.545 130.071 306.784 130.043C304.023 130.016 301.807 127.755 301.834 124.993Z" fill="url(#paint9_linear_555_278)"/>
<path d="M302.034 104.994C302.061 102.233 304.322 100.017 307.084 100.045C309.845 100.072 312.061 102.333 312.033 105.094C312.006 107.856 309.745 110.072 306.984 110.044C304.222 110.017 302.006 107.756 302.034 104.994Z" fill="url(#paint10_linear_555_278)"/>
<path d="M302.234 84.9954C302.261 82.2342 304.522 80.0181 307.283 80.0457C310.045 80.0733 312.261 82.3341 312.233 85.0954C312.205 87.8567 309.945 90.0728 307.183 90.0452C304.422 90.0176 302.206 87.7567 302.234 84.9954Z" fill="url(#paint11_linear_555_278)"/>
<path d="M302.434 64.9964C302.461 62.2351 304.722 60.019 307.483 60.0466C310.245 60.0742 312.461 62.3351 312.433 65.0964C312.406 67.8577 310.145 70.0737 307.384 70.0461C304.622 70.0185 302.406 67.7577 302.434 64.9964Z" fill="url(#paint12_linear_555_278)"/>
<path d="M302.633 44.9974C302.661 42.2361 304.922 40.02 307.683 40.0476C310.444 40.0752 312.661 42.3361 312.633 45.0973C312.605 47.8586 310.345 50.0747 307.583 50.0471C304.822 50.0195 302.606 47.7587 302.633 44.9974Z" fill="url(#paint13_linear_555_278)"/>
<path d="M302.834 24.9984C302.861 22.2371 305.122 20.021 307.883 20.0486C310.645 20.0762 312.861 22.337 312.833 25.0983C312.806 27.8596 310.545 30.0757 307.783 30.0481C305.022 30.0205 302.806 27.7597 302.834 24.9984Z" fill="url(#paint14_linear_555_278)"/>
<path d="M303.033 4.99984C303.061 2.23855 305.322 0.0224607 308.083 0.0500597C310.844 0.0776587 313.06 2.3385 313.033 5.09978C313.005 7.86107 310.744 10.0772 307.983 10.0496C305.222 10.022 303.006 7.76112 303.033 4.99984Z" fill="url(#paint15_linear_555_278)"/>
<path d="M140.043 303.386C140.071 300.624 142.332 298.408 145.093 298.436C147.854 298.463 150.07 300.724 150.043 303.486C150.015 306.247 147.754 308.463 144.993 308.435C142.232 308.408 140.016 306.147 140.043 303.386Z" fill="url(#paint16_linear_555_278)"/>
<path d="M140.243 283.387C140.27 280.625 142.531 278.409 145.293 278.437C148.054 278.464 150.27 280.725 150.242 283.487C150.215 286.248 147.954 288.464 145.193 288.436C142.431 288.409 140.215 286.148 140.243 283.387Z" fill="url(#paint17_linear_555_278)"/>
<path d="M140.443 263.388C140.47 260.626 142.731 258.41 145.492 258.438C148.254 258.465 150.47 260.726 150.442 263.487C150.414 266.249 148.154 268.465 145.392 268.437C142.631 268.41 140.415 266.149 140.443 263.388Z" fill="url(#paint18_linear_555_278)"/>
<path d="M140.643 243.389C140.67 240.627 142.931 238.411 145.692 238.439C148.454 238.466 150.67 240.727 150.642 243.488C150.615 246.25 148.354 248.466 145.592 248.438C142.831 248.411 140.615 246.15 140.643 243.389Z" fill="url(#paint19_linear_555_278)"/>
<path d="M140.842 223.389C140.87 220.628 143.131 218.412 145.892 218.44C148.653 218.467 150.87 220.728 150.842 223.489C150.814 226.251 148.553 228.467 145.792 228.439C143.031 228.412 140.815 226.151 140.842 223.389Z" fill="url(#paint20_linear_555_278)"/>
<path d="M141.043 203.39C141.07 200.629 143.331 198.413 146.092 198.441C148.854 198.468 151.07 200.729 151.042 203.49C151.015 206.252 148.754 208.468 145.992 208.44C143.231 208.413 141.015 206.152 141.043 203.39Z" fill="url(#paint21_linear_555_278)"/>
<path d="M141.242 183.391C141.27 180.63 143.531 178.414 146.292 178.442C149.053 178.469 151.269 180.73 151.242 183.491C151.214 186.253 148.953 188.469 146.192 188.441C143.431 188.414 141.215 186.153 141.242 183.391Z" fill="url(#paint22_linear_555_278)"/>
<path d="M141.442 163.392C141.47 160.631 143.73 158.415 146.492 158.443C149.253 158.47 151.469 160.731 151.442 163.492C151.414 166.254 149.153 168.47 146.392 168.442C143.631 168.415 141.414 166.154 141.442 163.392Z" fill="url(#paint23_linear_555_278)"/>
<path d="M220.039 304.185C220.067 301.424 222.328 299.208 225.089 299.235C227.85 299.263 230.066 301.524 230.039 304.285C230.011 307.046 227.75 309.262 224.989 309.235C222.228 309.207 220.012 306.946 220.039 304.185Z" fill="url(#paint24_linear_555_278)"/>
<path d="M220.239 284.186C220.267 281.425 222.527 279.208 225.289 279.236C228.05 279.264 230.266 281.525 230.238 284.286C230.211 287.047 227.95 289.263 225.189 289.236C222.427 289.208 220.211 286.947 220.239 284.186Z" fill="url(#paint25_linear_555_278)"/>
<path d="M220.439 264.187C220.466 261.426 222.727 259.209 225.488 259.237C228.25 259.265 230.466 261.526 230.438 264.287C230.411 267.048 228.15 269.264 225.388 269.237C222.627 269.209 220.411 266.948 220.439 264.187Z" fill="url(#paint26_linear_555_278)"/>
<path d="M220.639 244.188C220.666 241.427 222.927 239.21 225.689 239.238C228.45 239.266 230.666 241.526 230.638 244.288C230.611 247.049 228.35 249.265 225.589 249.238C222.827 249.21 220.611 246.949 220.639 244.188Z" fill="url(#paint27_linear_555_278)"/>
<path d="M220.839 224.189C220.866 221.428 223.127 219.212 225.888 219.24C228.65 219.267 230.866 221.528 230.838 224.289C230.81 227.051 228.55 229.267 225.788 229.239C223.027 229.211 220.811 226.951 220.839 224.189Z" fill="url(#paint28_linear_555_278)"/>
<path d="M221.038 204.19C221.066 201.429 223.327 199.213 226.088 199.24C228.849 199.268 231.065 201.529 231.038 204.29C231.01 207.051 228.749 209.268 225.988 209.24C223.227 209.212 221.011 206.952 221.038 204.19Z" fill="url(#paint29_linear_555_278)"/>
<path d="M221.238 184.191C221.266 181.43 223.527 179.214 226.288 179.241C229.049 179.269 231.266 181.53 231.238 184.291C231.21 187.052 228.949 189.269 226.188 189.241C223.427 189.213 221.211 186.953 221.238 184.191Z" fill="url(#paint30_linear_555_278)"/>
<path d="M221.638 144.193C221.666 141.432 223.927 139.216 226.688 139.243C229.449 139.271 231.665 141.532 231.638 144.293C231.61 147.054 229.349 149.271 226.588 149.243C223.827 149.215 221.611 146.954 221.638 144.193Z" fill="url(#paint31_linear_555_278)"/>
<path d="M221.438 164.192C221.466 161.431 223.727 159.215 226.488 159.242C229.249 159.27 231.465 161.531 231.438 164.292C231.41 167.053 229.149 169.27 226.388 169.242C223.627 169.214 221.411 166.954 221.438 164.192Z" fill="url(#paint32_linear_555_278)"/>
<path d="M221.838 124.194C221.866 121.433 224.126 119.217 226.888 119.244C229.649 119.272 231.865 121.533 231.838 124.294C231.81 127.055 229.549 129.271 226.788 129.244C224.027 129.216 221.81 126.955 221.838 124.194Z" fill="url(#paint33_linear_555_278)"/>
<path d="M222.038 104.195C222.065 101.434 224.326 99.2178 227.087 99.2454C229.849 99.273 232.065 101.534 232.037 104.295C232.01 107.056 229.749 109.272 226.988 109.245C224.226 109.217 222.01 106.956 222.038 104.195Z" fill="url(#paint34_linear_555_278)"/>
<path d="M222.238 84.1961C222.266 81.4348 224.526 79.2187 227.288 79.2463C230.049 79.2739 232.265 81.5348 232.237 84.2961C232.21 87.0574 229.949 89.2734 227.188 89.2458C224.426 89.2183 222.21 86.9574 222.238 84.1961Z" fill="url(#paint35_linear_555_278)"/>
<path d="M60.0469 302.586C60.0745 299.824 62.3353 297.608 65.0966 297.636C67.8579 297.664 70.074 299.924 70.0464 302.686C70.0188 305.447 67.758 307.663 64.9967 307.635C62.2354 307.608 60.0193 305.347 60.0469 302.586Z" fill="url(#paint36_linear_555_278)"/>
<path d="M60.2468 282.587C60.2744 279.825 62.5353 277.609 65.2966 277.637C68.0578 277.665 70.2739 279.925 70.2463 282.687C70.2187 285.448 67.9579 287.664 65.1966 287.636C62.4353 287.609 60.2192 285.348 60.2468 282.587Z" fill="url(#paint37_linear_555_278)"/>
<path d="M60.4467 262.588C60.4743 259.826 62.7351 257.61 65.4964 257.638C68.2577 257.666 70.4738 259.926 70.4462 262.688C70.4186 265.449 68.1577 267.665 65.3964 267.637C62.6352 267.61 60.4191 265.349 60.4467 262.588Z" fill="url(#paint38_linear_555_278)"/>
<path d="M60.6466 242.589C60.6742 239.827 62.9351 237.611 65.6963 237.639C68.4576 237.667 70.6737 239.927 70.6461 242.689C70.6185 245.45 68.3577 247.666 65.5964 247.638C62.8351 247.611 60.619 245.35 60.6466 242.589Z" fill="url(#paint39_linear_555_278)"/>
<path d="M260.037 304.585C260.064 301.824 262.325 299.607 265.086 299.635C267.848 299.663 270.064 301.923 270.036 304.685C270.009 307.446 267.748 309.662 264.987 309.635C262.225 309.607 260.009 307.346 260.037 304.585Z" fill="url(#paint40_linear_555_278)"/>
<path d="M260.237 284.586C260.265 281.824 262.525 279.608 265.287 279.636C268.048 279.664 270.264 281.924 270.236 284.686C270.209 287.447 267.948 289.663 265.187 289.635C262.425 289.608 260.209 287.347 260.237 284.586Z" fill="url(#paint41_linear_555_278)"/>
<path d="M260.437 264.587C260.464 261.825 262.725 259.609 265.486 259.637C268.248 259.665 270.464 261.925 270.436 264.687C270.409 267.448 268.148 269.664 265.386 269.636C262.625 269.609 260.409 267.348 260.437 264.587Z" fill="url(#paint42_linear_555_278)"/>
<path d="M260.637 244.588C260.664 241.826 262.925 239.61 265.687 239.638C268.448 239.666 270.664 241.926 270.636 244.688C270.609 247.449 268.348 249.665 265.587 249.637C262.825 249.61 260.609 247.349 260.637 244.588Z" fill="url(#paint43_linear_555_278)"/>
<path d="M260.837 224.589C260.864 221.827 263.125 219.611 265.886 219.639C268.648 219.667 270.864 221.927 270.836 224.689C270.808 227.45 268.548 229.666 265.786 229.638C263.025 229.611 260.809 227.35 260.837 224.589Z" fill="url(#paint44_linear_555_278)"/>
<path d="M261.036 204.59C261.064 201.828 263.325 199.612 266.086 199.64C268.847 199.668 271.063 201.928 271.036 204.69C271.008 207.451 268.747 209.667 265.986 209.639C263.225 209.612 261.009 207.351 261.036 204.59Z" fill="url(#paint45_linear_555_278)"/>
<path d="M261.636 144.593C261.663 141.831 263.924 139.615 266.686 139.643C269.447 139.67 271.663 141.931 271.635 144.693C271.608 147.454 269.347 149.67 266.586 149.642C263.824 149.615 261.608 147.354 261.636 144.593Z" fill="url(#paint46_linear_555_278)"/>
<path d="M261.236 184.591C261.264 181.829 263.525 179.613 266.286 179.641C269.047 179.668 271.264 181.929 271.236 184.691C271.208 187.452 268.948 189.668 266.186 189.64C263.425 189.613 261.209 187.352 261.236 184.591Z" fill="url(#paint47_linear_555_278)"/>
<path d="M261.436 164.592C261.464 161.83 263.725 159.614 266.486 159.642C269.247 159.669 271.463 161.93 271.436 164.692C271.408 167.453 269.147 169.669 266.386 169.641C263.625 169.614 261.409 167.353 261.436 164.592Z" fill="url(#paint48_linear_555_278)"/>
<path d="M261.836 124.594C261.864 121.832 264.125 119.616 266.886 119.644C269.647 119.671 271.863 121.932 271.836 124.694C271.808 127.455 269.547 129.671 266.786 129.643C264.025 129.616 261.808 127.355 261.836 124.594Z" fill="url(#paint49_linear_555_278)"/>
<path d="M262.036 104.595C262.063 101.833 264.324 99.6172 267.086 99.6448C269.847 99.6724 272.063 101.933 272.035 104.695C272.008 107.456 269.747 109.672 266.986 109.644C264.224 109.617 262.008 107.356 262.036 104.595Z" fill="url(#paint50_linear_555_278)"/>
<path d="M262.236 84.5955C262.264 81.8343 264.524 79.6182 267.286 79.6458C270.047 79.6734 272.263 81.9342 272.235 84.6955C272.208 87.4568 269.947 89.6729 267.186 89.6453C264.424 89.6177 262.208 87.3568 262.236 84.5955Z" fill="url(#paint51_linear_555_278)"/>
<path d="M262.436 64.597C262.463 61.8357 264.724 59.6196 267.485 59.6472C270.247 59.6748 272.463 61.9357 272.435 64.697C272.408 67.4582 270.147 69.6743 267.385 69.6467C264.624 69.6191 262.408 67.3583 262.436 64.597Z" fill="url(#paint52_linear_555_278)"/>
<path d="M262.635 44.598C262.663 41.8367 264.924 39.6206 267.685 39.6482C270.446 39.6758 272.662 41.9366 272.635 44.6979C272.607 47.4592 270.346 49.6753 267.585 49.6477C264.824 49.6201 262.608 47.3593 262.635 44.598Z" fill="url(#paint53_linear_555_278)"/>
<path d="M100.045 302.986C100.073 300.224 102.333 298.008 105.095 298.036C107.856 298.063 110.072 300.324 110.045 303.086C110.017 305.847 107.756 308.063 104.995 308.035C102.234 308.008 100.017 305.747 100.045 302.986Z" fill="url(#paint54_linear_555_278)"/>
<path d="M100.245 282.987C100.272 280.225 102.533 278.009 105.294 278.037C108.056 278.064 110.272 280.325 110.244 283.087C110.217 285.848 107.956 288.064 105.195 288.036C102.433 288.009 100.217 285.748 100.245 282.987Z" fill="url(#paint55_linear_555_278)"/>
<path d="M100.445 262.988C100.473 260.226 102.733 258.01 105.495 258.038C108.256 258.065 110.472 260.326 110.444 263.088C110.417 265.849 108.156 268.065 105.395 268.037C102.633 268.01 100.417 265.749 100.445 262.988Z" fill="url(#paint56_linear_555_278)"/>
<path d="M100.645 242.989C100.672 240.227 102.933 238.011 105.694 238.039C108.456 238.066 110.672 240.327 110.644 243.089C110.617 245.85 108.356 248.066 105.594 248.038C102.833 248.011 100.617 245.75 100.645 242.989Z" fill="url(#paint57_linear_555_278)"/>
<path d="M100.844 222.99C100.872 220.228 103.133 218.012 105.894 218.04C108.655 218.067 110.871 220.328 110.844 223.09C110.816 225.851 108.555 228.067 105.794 228.039C103.033 228.012 100.817 225.751 100.844 222.99Z" fill="url(#paint58_linear_555_278)"/>
<path d="M101.045 202.991C101.072 200.229 103.333 198.013 106.094 198.041C108.856 198.068 111.072 200.329 111.044 203.09C111.016 205.852 108.756 208.068 105.994 208.04C103.233 208.013 101.017 205.752 101.045 202.991Z" fill="url(#paint59_linear_555_278)"/>
<path d="M180.041 303.785C180.069 301.024 182.33 298.808 185.091 298.835C187.852 298.863 190.068 301.124 190.041 303.885C190.013 306.646 187.752 308.862 184.991 308.835C182.23 308.807 180.014 306.546 180.041 303.785Z" fill="url(#paint60_linear_555_278)"/>
<path d="M180.241 283.786C180.268 281.025 182.529 278.809 185.291 278.837C188.052 278.864 190.268 281.125 190.24 283.886C190.213 286.648 187.952 288.864 185.191 288.836C182.429 288.809 180.213 286.548 180.241 283.786Z" fill="url(#paint61_linear_555_278)"/>
<path d="M180.441 263.787C180.468 261.026 182.729 258.81 185.49 258.838C188.252 258.865 190.468 261.126 190.44 263.887C190.412 266.649 188.152 268.865 185.39 268.837C182.629 268.81 180.413 266.549 180.441 263.787Z" fill="url(#paint62_linear_555_278)"/>
<path d="M180.641 243.788C180.668 241.027 182.929 238.811 185.69 238.839C188.452 238.866 190.668 241.127 190.64 243.888C190.613 246.65 188.352 248.866 185.591 248.838C182.829 248.811 180.613 246.55 180.641 243.788Z" fill="url(#paint63_linear_555_278)"/>
<path d="M180.84 223.789C180.868 221.028 183.129 218.812 185.89 218.84C188.651 218.867 190.868 221.128 190.84 223.889C190.812 226.651 188.552 228.867 185.79 228.839C183.029 228.812 180.813 226.551 180.84 223.789Z" fill="url(#paint64_linear_555_278)"/>
<path d="M181.64 143.793C181.668 141.032 183.929 138.816 186.69 138.844C189.451 138.871 191.667 141.132 191.64 143.893C191.612 146.655 189.351 148.871 186.59 148.843C183.829 148.815 181.613 146.555 181.64 143.793Z" fill="url(#paint65_linear_555_278)"/>
<path d="M181.041 203.79C181.068 201.029 183.329 198.813 186.09 198.841C188.852 198.868 191.068 201.129 191.04 203.89C191.013 206.652 188.752 208.868 185.99 208.84C183.229 208.812 181.013 206.552 181.041 203.79Z" fill="url(#paint66_linear_555_278)"/>
<path d="M181.24 183.791C181.268 181.03 183.529 178.814 186.29 178.842C189.051 178.869 191.267 181.13 191.24 183.891C191.212 186.653 188.951 188.869 186.19 188.841C183.429 188.813 181.213 186.553 181.24 183.791Z" fill="url(#paint67_linear_555_278)"/>
<path d="M181.44 163.792C181.468 161.031 183.729 158.815 186.49 158.843C189.251 158.87 191.467 161.131 191.44 163.892C191.412 166.654 189.151 168.87 186.39 168.842C183.629 168.814 181.412 166.554 181.44 163.792Z" fill="url(#paint68_linear_555_278)"/>
<path d="M181.84 123.794C181.868 121.033 184.128 118.817 186.89 118.844C189.651 118.872 191.867 121.133 191.839 123.894C191.812 126.656 189.551 128.872 186.79 128.844C184.028 128.816 181.812 126.556 181.84 123.794Z" fill="url(#paint69_linear_555_278)"/>
<path d="M20.049 302.186C20.0766 299.425 22.3374 297.209 25.0987 297.237C27.86 297.264 30.0761 299.525 30.0485 302.286C30.0209 305.048 27.76 307.264 24.9987 307.236C22.2375 307.208 20.0214 304.948 20.049 302.186Z" fill="url(#paint70_linear_555_278)"/>
<path d="M20.2488 282.187C20.2764 279.426 22.5372 277.21 25.2985 277.238C28.0598 277.265 30.2759 279.526 30.2483 282.287C30.2207 285.049 27.9599 287.265 25.1986 287.237C22.4373 287.209 20.2212 284.949 20.2488 282.187Z" fill="url(#paint71_linear_555_278)"/>
<path d="M280.036 304.785C280.063 302.023 282.324 299.807 285.086 299.835C287.847 299.862 290.063 302.123 290.035 304.884C290.008 307.646 287.747 309.862 284.986 309.834C282.224 309.807 280.008 307.546 280.036 304.785Z" fill="url(#paint72_linear_555_278)"/>
<path d="M280.236 284.786C280.264 282.025 282.524 279.809 285.286 279.836C288.047 279.864 290.263 282.125 290.235 284.886C290.208 287.647 287.947 289.863 285.186 289.836C282.424 289.808 280.208 287.547 280.236 284.786Z" fill="url(#paint73_linear_555_278)"/>
<path d="M280.436 264.787C280.463 262.026 282.724 259.81 285.485 259.837C288.247 259.865 290.463 262.126 290.435 264.887C290.408 267.648 288.147 269.864 285.385 269.837C282.624 269.809 280.408 267.548 280.436 264.787Z" fill="url(#paint74_linear_555_278)"/>
<path d="M280.636 244.788C280.663 242.027 282.924 239.811 285.686 239.838C288.447 239.866 290.663 242.127 290.635 244.888C290.608 247.649 288.347 249.865 285.586 249.838C282.824 249.81 280.608 247.549 280.636 244.788Z" fill="url(#paint75_linear_555_278)"/>
<path d="M281.635 144.793C281.662 142.032 283.923 139.815 286.685 139.843C289.446 139.871 291.662 142.131 291.634 144.893C291.607 147.654 289.346 149.87 286.585 149.843C283.823 149.815 281.607 147.554 281.635 144.793Z" fill="url(#paint76_linear_555_278)"/>
<path d="M280.836 224.789C280.863 222.028 283.124 219.812 285.885 219.839C288.647 219.867 290.863 222.128 290.835 224.889C290.807 227.65 288.547 229.866 285.785 229.839C283.024 229.811 280.808 227.55 280.836 224.789Z" fill="url(#paint77_linear_555_278)"/>
<path d="M281.035 204.79C281.063 202.029 283.324 199.813 286.085 199.84C288.846 199.868 291.062 202.129 291.035 204.89C291.007 207.651 288.746 209.867 285.985 209.84C283.224 209.812 281.008 207.551 281.035 204.79Z" fill="url(#paint78_linear_555_278)"/>
<path d="M281.235 184.791C281.263 182.03 283.524 179.813 286.285 179.841C289.047 179.869 291.263 182.13 291.235 184.891C291.207 187.652 288.947 189.868 286.185 189.841C283.424 189.813 281.208 187.552 281.235 184.791Z" fill="url(#paint79_linear_555_278)"/>
<path d="M281.435 164.792C281.463 162.031 283.724 159.814 286.485 159.842C289.246 159.87 291.462 162.13 291.435 164.892C291.407 167.653 289.146 169.869 286.385 169.842C283.624 169.814 281.408 167.553 281.435 164.792Z" fill="url(#paint80_linear_555_278)"/>
<path d="M281.835 124.794C281.863 122.032 284.124 119.816 286.885 119.844C289.646 119.872 291.862 122.132 291.835 124.894C291.807 127.655 289.546 129.871 286.785 129.844C284.024 129.816 281.807 127.555 281.835 124.794Z" fill="url(#paint81_linear_555_278)"/>
<path d="M282.035 104.795C282.062 102.033 284.323 99.8174 287.085 99.845C289.846 99.8726 292.062 102.133 292.034 104.895C292.007 107.656 289.746 109.872 286.985 109.844C284.223 109.817 282.007 107.556 282.035 104.795Z" fill="url(#paint82_linear_555_278)"/>
<path d="M282.235 84.7957C282.263 82.0345 284.523 79.8184 287.285 79.846C290.046 79.8736 292.262 82.1344 292.234 84.8957C292.207 87.657 289.946 89.8731 287.185 89.8455C284.423 89.8179 282.207 87.557 282.235 84.7957Z" fill="url(#paint83_linear_555_278)"/>
<path d="M282.435 64.7967C282.462 62.0354 284.723 59.8193 287.484 59.8469C290.246 59.8745 292.462 62.1354 292.434 64.8967C292.407 67.6579 290.146 69.874 287.384 69.8464C284.623 69.8188 282.407 67.558 282.435 64.7967Z" fill="url(#paint84_linear_555_278)"/>
<path d="M282.634 44.7977C282.662 42.0364 284.923 39.8203 287.684 39.8479C290.445 39.8755 292.662 42.1363 292.634 44.8976C292.606 47.6589 290.345 49.875 287.584 49.8474C284.823 49.8198 282.607 47.559 282.634 44.7977Z" fill="url(#paint85_linear_555_278)"/>
<path d="M282.835 24.7987C282.862 22.0374 285.123 19.8213 287.884 19.8489C290.646 19.8765 292.862 22.1373 292.834 24.8986C292.807 27.6599 290.546 29.876 287.784 29.8484C285.023 29.8208 282.807 27.56 282.835 24.7987Z" fill="url(#paint86_linear_555_278)"/>
<path d="M120.044 303.185C120.072 300.424 122.333 298.208 125.094 298.236C127.855 298.263 130.071 300.524 130.044 303.285C130.016 306.047 127.755 308.263 124.994 308.235C122.233 308.208 120.016 305.947 120.044 303.185Z" fill="url(#paint87_linear_555_278)"/>
<path d="M120.244 283.186C120.271 280.425 122.532 278.209 125.294 278.237C128.055 278.264 130.271 280.525 130.243 283.286C130.216 286.048 127.955 288.264 125.194 288.236C122.432 288.208 120.216 285.948 120.244 283.186Z" fill="url(#paint88_linear_555_278)"/>
<path d="M120.444 263.187C120.472 260.426 122.732 258.21 125.494 258.238C128.255 258.265 130.471 260.526 130.443 263.287C130.416 266.049 128.155 268.265 125.394 268.237C122.632 268.209 120.416 265.949 120.444 263.187Z" fill="url(#paint89_linear_555_278)"/>
<path d="M120.644 243.189C120.671 240.428 122.932 238.211 125.693 238.239C128.455 238.267 130.671 240.527 130.643 243.289C130.616 246.05 128.355 248.266 125.593 248.239C122.832 248.211 120.616 245.95 120.644 243.189Z" fill="url(#paint90_linear_555_278)"/>
<path d="M120.843 223.19C120.871 220.428 123.132 218.212 125.893 218.24C128.654 218.268 130.87 220.528 130.843 223.29C130.815 226.051 128.554 228.267 125.793 228.24C123.032 228.212 120.816 225.951 120.843 223.19Z" fill="url(#paint91_linear_555_278)"/>
<path d="M121.044 203.191C121.071 200.429 123.332 198.213 126.093 198.241C128.855 198.269 131.071 200.529 131.043 203.291C131.015 206.052 128.755 208.268 125.993 208.24C123.232 208.213 121.016 205.952 121.044 203.191Z" fill="url(#paint92_linear_555_278)"/>
<path d="M121.243 183.192C121.271 180.43 123.532 178.214 126.293 178.242C129.054 178.27 131.27 180.53 131.243 183.292C131.215 186.053 128.954 188.269 126.193 188.241C123.432 188.214 121.216 185.953 121.243 183.192Z" fill="url(#paint93_linear_555_278)"/>
<path d="M200.04 303.985C200.068 301.224 202.329 299.008 205.09 299.035C207.851 299.063 210.067 301.324 210.04 304.085C210.012 306.846 207.751 309.063 204.99 309.035C202.229 309.007 200.013 306.746 200.04 303.985Z" fill="url(#paint94_linear_555_278)"/>
<path d="M200.24 283.986C200.267 281.225 202.528 279.009 205.29 279.036C208.051 279.064 210.267 281.325 210.239 284.086C210.212 286.847 207.951 289.063 205.19 289.036C202.428 289.008 200.212 286.747 200.24 283.986Z" fill="url(#paint95_linear_555_278)"/>
<path d="M200.44 263.987C200.467 261.226 202.728 259.01 205.489 259.037C208.251 259.065 210.467 261.326 210.439 264.087C210.411 266.848 208.151 269.064 205.389 269.037C202.628 269.009 200.412 266.748 200.44 263.987Z" fill="url(#paint96_linear_555_278)"/>
<path d="M201.639 143.993C201.667 141.232 203.928 139.016 206.689 139.043C209.45 139.071 211.666 141.332 211.639 144.093C211.611 146.854 209.35 149.07 206.589 149.043C203.828 149.015 201.612 146.754 201.639 143.993Z" fill="url(#paint97_linear_555_278)"/>
<path d="M200.64 243.988C200.667 241.227 202.928 239.011 205.689 239.038C208.451 239.066 210.667 241.327 210.639 244.088C210.612 246.849 208.351 249.065 205.59 249.038C202.828 249.01 200.612 246.749 200.64 243.988Z" fill="url(#paint98_linear_555_278)"/>
<path d="M200.839 223.989C200.867 221.228 203.128 219.012 205.889 219.039C208.65 219.067 210.867 221.328 210.839 224.089C210.811 226.85 208.551 229.066 205.789 229.039C203.028 229.011 200.812 226.75 200.839 223.989Z" fill="url(#paint99_linear_555_278)"/>
<path d="M201.039 203.99C201.067 201.229 203.328 199.013 206.089 199.04C208.85 199.068 211.066 201.329 211.039 204.09C211.011 206.851 208.75 209.067 205.989 209.04C203.228 209.012 201.012 206.751 201.039 203.99Z" fill="url(#paint100_linear_555_278)"/>
<path d="M201.239 183.991C201.267 181.23 203.528 179.014 206.289 179.041C209.05 179.069 211.266 181.33 211.239 184.091C211.211 186.852 208.95 189.068 206.189 189.041C203.428 189.013 201.212 186.752 201.239 183.991Z" fill="url(#paint101_linear_555_278)"/>
<path d="M201.439 163.992C201.467 161.231 203.728 159.015 206.489 159.042C209.25 159.07 211.466 161.331 211.439 164.092C211.411 166.853 209.15 169.069 206.389 169.042C203.628 169.014 201.412 166.753 201.439 163.992Z" fill="url(#paint102_linear_555_278)"/>
<path d="M201.839 123.994C201.867 121.233 204.127 119.017 206.889 119.044C209.65 119.072 211.866 121.333 211.839 124.094C211.811 126.855 209.55 129.071 206.789 129.044C204.027 129.016 201.811 126.755 201.839 123.994Z" fill="url(#paint103_linear_555_278)"/>
<path d="M202.039 103.995C202.066 101.234 204.327 99.0176 207.088 99.0452C209.85 99.0728 212.066 101.334 212.038 104.095C212.011 106.856 209.75 109.072 206.988 109.045C204.227 109.017 202.011 106.756 202.039 103.995Z" fill="url(#paint104_linear_555_278)"/>
<path d="M40.0479 302.386C40.0755 299.625 42.3363 297.409 45.0976 297.436C47.8589 297.464 50.075 299.725 50.0474 302.486C50.0198 305.247 47.7589 307.463 44.9976 307.436C42.2364 307.408 40.0203 305.147 40.0479 302.386Z" fill="url(#paint105_linear_555_278)"/>
<path d="M40.2478 282.387C40.2754 279.626 42.5362 277.41 45.2975 277.437C48.0588 277.465 50.2749 279.726 50.2473 282.487C50.2197 285.248 47.9589 287.464 45.1976 287.437C42.4363 287.409 40.2202 285.148 40.2478 282.387Z" fill="url(#paint106_linear_555_278)"/>
<path d="M40.4476 262.388C40.4752 259.627 42.7361 257.411 45.4974 257.438C48.2586 257.466 50.4747 259.727 50.4471 262.488C50.4195 265.249 48.1587 267.465 45.3974 267.438C42.6361 267.41 40.42 265.149 40.4476 262.388Z" fill="url(#paint107_linear_555_278)"/>
<path d="M240.038 304.385C240.066 301.624 242.327 299.408 245.088 299.435C247.849 299.463 250.065 301.724 250.038 304.485C250.01 307.246 247.749 309.462 244.988 309.435C242.227 309.407 240.011 307.146 240.038 304.385Z" fill="url(#paint108_linear_555_278)"/>
<path d="M240.238 284.386C240.266 281.625 242.526 279.409 245.288 279.436C248.049 279.464 250.265 281.725 250.237 284.486C250.21 287.247 247.949 289.463 245.188 289.436C242.426 289.408 240.21 287.147 240.238 284.386Z" fill="url(#paint109_linear_555_278)"/>
<path d="M241.637 144.393C241.665 141.632 243.926 139.416 246.687 139.443C249.448 139.471 251.664 141.732 251.637 144.493C251.609 147.254 249.348 149.47 246.587 149.443C243.826 149.415 241.61 147.154 241.637 144.393Z" fill="url(#paint110_linear_555_278)"/>
<path d="M240.438 264.387C240.465 261.626 242.726 259.41 245.487 259.437C248.249 259.465 250.465 261.726 250.437 264.487C250.41 267.248 248.149 269.464 245.387 269.437C242.626 269.409 240.41 267.148 240.438 264.387Z" fill="url(#paint111_linear_555_278)"/>
<path d="M240.638 244.388C240.665 241.627 242.926 239.411 245.688 239.438C248.449 239.466 250.665 241.727 250.637 244.488C250.61 247.249 248.349 249.465 245.588 249.438C242.826 249.41 240.61 247.149 240.638 244.388Z" fill="url(#paint112_linear_555_278)"/>
<path d="M240.838 224.389C240.865 221.628 243.126 219.412 245.887 219.439C248.649 219.467 250.865 221.728 250.837 224.489C250.809 227.25 248.549 229.466 245.787 229.439C243.026 229.411 240.81 227.15 240.838 224.389Z" fill="url(#paint113_linear_555_278)"/>
<path d="M241.037 204.39C241.065 201.629 243.326 199.413 246.087 199.44C248.848 199.468 251.064 201.729 251.037 204.49C251.009 207.251 248.748 209.467 245.987 209.44C243.226 209.412 241.01 207.151 241.037 204.39Z" fill="url(#paint114_linear_555_278)"/>
<path d="M241.237 184.391C241.265 181.63 243.526 179.414 246.287 179.441C249.048 179.469 251.265 181.73 251.237 184.491C251.209 187.252 248.948 189.468 246.187 189.441C243.426 189.413 241.21 187.152 241.237 184.391Z" fill="url(#paint115_linear_555_278)"/>
<path d="M241.437 164.392C241.465 161.631 243.726 159.415 246.487 159.442C249.248 159.47 251.464 161.731 251.437 164.492C251.409 167.253 249.148 169.469 246.387 169.442C243.626 169.414 241.41 167.153 241.437 164.392Z" fill="url(#paint116_linear_555_278)"/>
<path d="M241.837 124.394C241.865 121.633 244.125 119.417 246.887 119.444C249.648 119.472 251.864 121.733 251.837 124.494C251.809 127.255 249.548 129.471 246.787 129.444C244.026 129.416 241.809 127.155 241.837 124.394Z" fill="url(#paint117_linear_555_278)"/>
<path d="M242.037 104.395C242.064 101.634 244.325 99.4175 247.086 99.4451C249.848 99.4727 252.064 101.734 252.036 104.495C252.009 107.256 249.748 109.472 246.987 109.445C244.225 109.417 242.009 107.156 242.037 104.395Z" fill="url(#paint118_linear_555_278)"/>
<path d="M242.237 84.3958C242.265 81.6346 244.525 79.4185 247.287 79.4461C250.048 79.4737 252.264 81.7345 252.236 84.4958C252.209 87.2571 249.948 89.4732 247.187 89.4456C244.425 89.418 242.209 87.1571 242.237 84.3958Z" fill="url(#paint119_linear_555_278)"/>
<path d="M242.437 64.3968C242.464 61.6355 244.725 59.4194 247.486 59.447C250.248 59.4746 252.464 61.7355 252.436 64.4968C252.409 67.258 250.148 69.4741 247.386 69.4465C244.625 69.4189 242.409 67.1581 242.437 64.3968Z" fill="url(#paint120_linear_555_278)"/>
<path d="M80.0459 302.786C80.0735 300.025 82.3343 297.809 85.0956 297.836C87.8569 297.864 90.073 300.125 90.0454 302.886C90.0178 305.647 87.757 307.863 84.9957 307.836C82.2344 307.808 80.0183 305.547 80.0459 302.786Z" fill="url(#paint121_linear_555_278)"/>
<path d="M80.2459 282.787C80.2735 280.026 82.5343 277.81 85.2956 277.837C88.0569 277.865 90.273 280.126 90.2454 282.887C90.2178 285.648 87.9569 287.864 85.1956 287.837C82.4344 287.809 80.2183 285.548 80.2459 282.787Z" fill="url(#paint122_linear_555_278)"/>
<path d="M80.4457 262.788C80.4733 260.027 82.7341 257.811 85.4954 257.838C88.2567 257.866 90.4728 260.127 90.4452 262.888C90.4176 265.649 88.1568 267.865 85.3955 267.838C82.6342 267.81 80.4181 265.549 80.4457 262.788Z" fill="url(#paint123_linear_555_278)"/>
<path d="M80.6455 242.789C80.6731 240.028 82.934 237.812 85.6952 237.839C88.4565 237.867 90.6726 240.128 90.645 242.889C90.6174 245.65 88.3566 247.866 85.5953 247.839C82.834 247.811 80.6179 245.55 80.6455 242.789Z" fill="url(#paint124_linear_555_278)"/>
<path d="M80.8455 222.79C80.8731 220.029 83.1339 217.813 85.8952 217.84C88.6565 217.868 90.8726 220.129 90.845 222.89C90.8174 225.651 88.5565 227.867 85.7952 227.84C83.034 227.812 80.8179 225.551 80.8455 222.79Z" fill="url(#paint125_linear_555_278)"/>
<path d="M160.042 303.585C160.07 300.824 162.331 298.608 165.092 298.635C167.853 298.663 170.069 300.924 170.042 303.685C170.014 306.447 167.753 308.663 164.992 308.635C162.231 308.607 160.015 306.347 160.042 303.585Z" fill="url(#paint126_linear_555_278)"/>
<path d="M160.242 283.586C160.269 280.825 162.53 278.609 165.292 278.636C168.053 278.664 170.269 280.925 170.241 283.686C170.214 286.448 167.953 288.664 165.192 288.636C162.43 288.608 160.214 286.348 160.242 283.586Z" fill="url(#paint127_linear_555_278)"/>
<path d="M160.442 263.587C160.469 260.826 162.73 258.61 165.491 258.637C168.253 258.665 170.469 260.926 170.441 263.687C170.413 266.448 168.153 268.665 165.391 268.637C162.63 268.609 160.414 266.349 160.442 263.587Z" fill="url(#paint128_linear_555_278)"/>
<path d="M160.642 243.588C160.669 240.827 162.93 238.611 165.691 238.638C168.453 238.666 170.669 240.927 170.641 243.688C170.614 246.449 168.353 248.666 165.592 248.638C162.83 248.61 160.614 246.349 160.642 243.588Z" fill="url(#paint129_linear_555_278)"/>
<path d="M160.841 223.589C160.869 220.828 163.13 218.612 165.891 218.639C168.652 218.667 170.869 220.928 170.841 223.689C170.813 226.45 168.552 228.667 165.791 228.639C163.03 228.611 160.814 226.35 160.841 223.589Z" fill="url(#paint130_linear_555_278)"/>
<path d="M161.042 203.59C161.069 200.829 163.33 198.613 166.091 198.64C168.853 198.668 171.069 200.929 171.041 203.69C171.014 206.451 168.753 208.667 165.991 208.64C163.23 208.612 161.014 206.351 161.042 203.59Z" fill="url(#paint131_linear_555_278)"/>
<path d="M161.241 183.592C161.269 180.83 163.53 178.614 166.291 178.642C169.052 178.669 171.268 180.93 171.241 183.692C171.213 186.453 168.952 188.669 166.191 188.641C163.43 188.614 161.214 186.353 161.241 183.592Z" fill="url(#paint132_linear_555_278)"/>
<path d="M161.441 163.593C161.469 160.831 163.729 158.615 166.491 158.643C169.252 158.67 171.468 160.931 171.441 163.693C171.413 166.454 169.152 168.67 166.391 168.642C163.63 168.615 161.413 166.354 161.441 163.593Z" fill="url(#paint133_linear_555_278)"/>
<path d="M161.641 143.594C161.669 140.832 163.93 138.616 166.691 138.644C169.452 138.671 171.668 140.932 171.641 143.694C171.613 146.455 169.352 148.671 166.591 148.643C163.83 148.616 161.614 146.355 161.641 143.594Z" fill="url(#paint134_linear_555_278)"/>
<path d="M0.0499376 301.986C0.0775366 299.225 2.33837 297.009 5.09966 297.036C7.86095 297.064 10.077 299.325 10.0494 302.086C10.0218 304.847 7.761 307.063 4.99972 307.036C2.23843 307.008 0.0223387 304.747 0.0499376 301.986Z" fill="url(#paint135_linear_555_278)"/>
<defs>
<linearGradient id="paint0_linear_555_278" x1="-1.32041e-06" y1="-7.14754e-08" x2="313" y2="310" gradientUnits="userSpaceOnUse">
<stop offset="0.495" stop-color="#E522BB" stop-opacity="0"/>
<stop offset="1" stop-color="#E522BB"/>
</linearGradient>
<linearGradient id="paint1_linear_555_278" x1="-1.32041e-06" y1="-7.14754e-08" x2="313" y2="310" gradientUnits="userSpaceOnUse">
<stop offset="0.495" stop-color="#E522BB" stop-opacity="0"/>
<stop offset="1" stop-color="#E522BB"/>
</linearGradient>
<linearGradient id="paint2_linear_555_278" x1="-1.32041e-06" y1="-7.14754e-08" x2="313" y2="310" gradientUnits="userSpaceOnUse">
<stop offset="0.495" stop-color="#E522BB" stop-opacity="0"/>
<stop offset="1" stop-color="#E522BB"/>
</linearGradient>
<linearGradient id="paint3_linear_555_278" x1="-1.32041e-06" y1="-7.14754e-08" x2="313" y2="310" gradientUnits="userSpaceOnUse">
<stop offset="0.495" stop-color="#E522BB" stop-opacity="0"/>
<stop offset="1" stop-color="#E522BB"/>
</linearGradient>
<linearGradient id="paint4_linear_555_278" x1="-1.32041e-06" y1="-7.14754e-08" x2="313" y2="310" gradientUnits="userSpaceOnUse">
<stop offset="0.495" stop-color="#E522BB" stop-opacity="0"/>
<stop offset="1" stop-color="#E522BB"/>
</linearGradient>
<linearGradient id="paint5_linear_555_278" x1="-1.32041e-06" y1="-7.14754e-08" x2="313" y2="310" gradientUnits="userSpaceOnUse">
<stop offset="0.495" stop-color="#E522BB" stop-opacity="0"/>
<stop offset="1" stop-color="#E522BB"/>
</linearGradient>
<linearGradient id="paint6_linear_555_278" x1="-1.32041e-06" y1="-7.14754e-08" x2="313" y2="310" gradientUnits="userSpaceOnUse">
<stop offset="0.495" stop-color="#E522BB" stop-opacity="0"/>
<stop offset="1" stop-color="#E522BB"/>
</linearGradient>
<linearGradient id="paint7_linear_555_278" x1="-1.32041e-06" y1="-7.14754e-08" x2="313" y2="310" gradientUnits="userSpaceOnUse">
<stop offset="0.495" stop-color="#E522BB" stop-opacity="0"/>
<stop offset="1" stop-color="#E522BB"/>
</linearGradient>
<linearGradient id="paint8_linear_555_278" x1="-1.32041e-06" y1="-7.14754e-08" x2="313" y2="310" gradientUnits="userSpaceOnUse">
<stop offset="0.495" stop-color="#E522BB" stop-opacity="0"/>
<stop offset="1" stop-color="#E522BB"/>
</linearGradient>
<linearGradient id="paint9_linear_555_278" x1="-1.32041e-06" y1="-7.14754e-08" x2="313" y2="310" gradientUnits="userSpaceOnUse">
<stop offset="0.495" stop-color="#E522BB" stop-opacity="0"/>
<stop offset="1" stop-color="#E522BB"/>
</linearGradient>
<linearGradient id="paint10_linear_555_278" x1="-1.32041e-06" y1="-7.14754e-08" x2="313" y2="310" gradientUnits="userSpaceOnUse">
<stop offset="0.495" stop-color="#E522BB" stop-opacity="0"/>
<stop offset="1" stop-color="#E522BB"/>
</linearGradient>
<linearGradient id="paint11_linear_555_278" x1="-1.32041e-06" y1="-7.14754e-08" x2="313" y2="310" gradientUnits="userSpaceOnUse">
<stop offset="0.495" stop-color="#E522BB" stop-opacity="0"/>
<stop offset="1" stop-color="#E522BB"/>
</linearGradient>
<linearGradient id="paint12_linear_555_278" x1="-1.32041e-06" y1="-7.14754e-08" x2="313" y2="310" gradientUnits="userSpaceOnUse">
<stop offset="0.495" stop-color="#E522BB" stop-opacity="0"/>
<stop offset="1" stop-color="#E522BB"/>
</linearGradient>
<linearGradient id="paint13_linear_555_278" x1="-1.32041e-06" y1="-7.14754e-08" x2="313" y2="310" gradientUnits="userSpaceOnUse">
<stop offset="0.495" stop-color="#E522BB" stop-opacity="0"/>
<stop offset="1" stop-color="#E522BB"/>
</linearGradient>
<linearGradient id="paint14_linear_555_278" x1="-1.32041e-06" y1="-7.14754e-08" x2="313" y2="310" gradientUnits="userSpaceOnUse">
<stop offset="0.495" stop-color="#E522BB" stop-opacity="0"/>
<stop offset="1" stop-color="#E522BB"/>
</linearGradient>
<linearGradient id="paint15_linear_555_278" x1="-1.32041e-06" y1="-7.14754e-08" x2="313" y2="310" gradientUnits="userSpaceOnUse">
<stop offset="0.495" stop-color="#E522BB" stop-opacity="0"/>
<stop offset="1" stop-color="#E522BB"/>
</linearGradient>
<linearGradient id="paint16_linear_555_278" x1="-1.32041e-06" y1="-7.14754e-08" x2="313" y2="310" gradientUnits="userSpaceOnUse">
<stop offset="0.495" stop-color="#E522BB" stop-opacity="0"/>
<stop offset="1" stop-color="#E522BB"/>
</linearGradient>
<linearGradient id="paint17_linear_555_278" x1="-1.32041e-06" y1="-7.14754e-08" x2="313" y2="310" gradientUnits="userSpaceOnUse">
<stop offset="0.495" stop-color="#E522BB" stop-opacity="0"/>
<stop offset="1" stop-color="#E522BB"/>
</linearGradient>
<linearGradient id="paint18_linear_555_278" x1="-1.32041e-06" y1="-7.14754e-08" x2="313" y2="310" gradientUnits="userSpaceOnUse">
<stop offset="0.495" stop-color="#E522BB" stop-opacity="0"/>
<stop offset="1" stop-color="#E522BB"/>
</linearGradient>
<linearGradient id="paint19_linear_555_278" x1="-1.32041e-06" y1="-7.14754e-08" x2="313" y2="310" gradientUnits="userSpaceOnUse">
<stop offset="0.495" stop-color="#E522BB" stop-opacity="0"/>
<stop offset="1" stop-color="#E522BB"/>
</linearGradient>
<linearGradient id="paint20_linear_555_278" x1="-1.32041e-06" y1="-7.14754e-08" x2="313" y2="310" gradientUnits="userSpaceOnUse">
<stop offset="0.495" stop-color="#E522BB" stop-opacity="0"/>
<stop offset="1" stop-color="#E522BB"/>
</linearGradient>
<linearGradient id="paint21_linear_555_278" x1="-1.32041e-06" y1="-7.14754e-08" x2="313" y2="310" gradientUnits="userSpaceOnUse">
<stop offset="0.495" stop-color="#E522BB" stop-opacity="0"/>
<stop offset="1" stop-color="#E522BB"/>
</linearGradient>
<linearGradient id="paint22_linear_555_278" x1="-1.32041e-06" y1="-7.14754e-08" x2="313" y2="310" gradientUnits="userSpaceOnUse">
<stop offset="0.495" stop-color="#E522BB" stop-opacity="0"/>
<stop offset="1" stop-color="#E522BB"/>
</linearGradient>
<linearGradient id="paint23_linear_555_278" x1="-1.32041e-06" y1="-7.14754e-08" x2="313" y2="310" gradientUnits="userSpaceOnUse">
<stop offset="0.495" stop-color="#E522BB" stop-opacity="0"/>
<stop offset="1" stop-color="#E522BB"/>
</linearGradient>
<linearGradient id="paint24_linear_555_278" x1="-1.32041e-06" y1="-7.14754e-08" x2="313" y2="310" gradientUnits="userSpaceOnUse">
<stop offset="0.495" stop-color="#E522BB" stop-opacity="0"/>
<stop offset="1" stop-color="#E522BB"/>
</linearGradient>
<linearGradient id="paint25_linear_555_278" x1="-1.32041e-06" y1="-7.14754e-08" x2="313" y2="310" gradientUnits="userSpaceOnUse">
<stop offset="0.495" stop-color="#E522BB" stop-opacity="0"/>
<stop offset="1" stop-color="#E522BB"/>
</linearGradient>
<linearGradient id="paint26_linear_555_278" x1="-1.32041e-06" y1="-7.14754e-08" x2="313" y2="310" gradientUnits="userSpaceOnUse">
<stop offset="0.495" stop-color="#E522BB" stop-opacity="0"/>
<stop offset="1" stop-color="#E522BB"/>
</linearGradient>
<linearGradient id="paint27_linear_555_278" x1="-1.32041e-06" y1="-7.14754e-08" x2="313" y2="310" gradientUnits="userSpaceOnUse">
<stop offset="0.495" stop-color="#E522BB" stop-opacity="0"/>
<stop offset="1" stop-color="#E522BB"/>
</linearGradient>
<linearGradient id="paint28_linear_555_278" x1="-1.32041e-06" y1="-7.14754e-08" x2="313" y2="310" gradientUnits="userSpaceOnUse">
<stop offset="0.495" stop-color="#E522BB" stop-opacity="0"/>
<stop offset="1" stop-color="#E522BB"/>
</linearGradient>
<linearGradient id="paint29_linear_555_278" x1="-1.32041e-06" y1="-7.14754e-08" x2="313" y2="310" gradientUnits="userSpaceOnUse">
<stop offset="0.495" stop-color="#E522BB" stop-opacity="0"/>
<stop offset="1" stop-color="#E522BB"/>
</linearGradient>
<linearGradient id="paint30_linear_555_278" x1="-1.32041e-06" y1="-7.14754e-08" x2="313" y2="310" gradientUnits="userSpaceOnUse">
<stop offset="0.495" stop-color="#E522BB" stop-opacity="0"/>
<stop offset="1" stop-color="#E522BB"/>
</linearGradient>
<linearGradient id="paint31_linear_555_278" x1="-1.32041e-06" y1="-7.14754e-08" x2="313" y2="310" gradientUnits="userSpaceOnUse">
<stop offset="0.495" stop-color="#E522BB" stop-opacity="0"/>
<stop offset="1" stop-color="#E522BB"/>
</linearGradient>
<linearGradient id="paint32_linear_555_278" x1="-1.32041e-06" y1="-7.14754e-08" x2="313" y2="310" gradientUnits="userSpaceOnUse">
<stop offset="0.495" stop-color="#E522BB" stop-opacity="0"/>
<stop offset="1" stop-color="#E522BB"/>
</linearGradient>
<linearGradient id="paint33_linear_555_278" x1="-1.32041e-06" y1="-7.14754e-08" x2="313" y2="310" gradientUnits="userSpaceOnUse">
<stop offset="0.495" stop-color="#E522BB" stop-opacity="0"/>
<stop offset="1" stop-color="#E522BB"/>
</linearGradient>
<linearGradient id="paint34_linear_555_278" x1="-1.32041e-06" y1="-7.14754e-08" x2="313" y2="310" gradientUnits="userSpaceOnUse">
<stop offset="0.495" stop-color="#E522BB" stop-opacity="0"/>
<stop offset="1" stop-color="#E522BB"/>
</linearGradient>
<linearGradient id="paint35_linear_555_278" x1="-1.32041e-06" y1="-7.14754e-08" x2="313" y2="310" gradientUnits="userSpaceOnUse">
<stop offset="0.495" stop-color="#E522BB" stop-opacity="0"/>
<stop offset="1" stop-color="#E522BB"/>
</linearGradient>
<linearGradient id="paint36_linear_555_278" x1="-1.32041e-06" y1="-7.14754e-08" x2="313" y2="310" gradientUnits="userSpaceOnUse">
<stop offset="0.495" stop-color="#E522BB" stop-opacity="0"/>
<stop offset="1" stop-color="#E522BB"/>
</linearGradient>
<linearGradient id="paint37_linear_555_278" x1="-1.32041e-06" y1="-7.14754e-08" x2="313" y2="310" gradientUnits="userSpaceOnUse">
<stop offset="0.495" stop-color="#E522BB" stop-opacity="0"/>
<stop offset="1" stop-color="#E522BB"/>
</linearGradient>
<linearGradient id="paint38_linear_555_278" x1="-1.32041e-06" y1="-7.14754e-08" x2="313" y2="310" gradientUnits="userSpaceOnUse">
<stop offset="0.495" stop-color="#E522BB" stop-opacity="0"/>
<stop offset="1" stop-color="#E522BB"/>
</linearGradient>
<linearGradient id="paint39_linear_555_278" x1="-1.32041e-06" y1="-7.14754e-08" x2="313" y2="310" gradientUnits="userSpaceOnUse">
<stop offset="0.495" stop-color="#E522BB" stop-opacity="0"/>
<stop offset="1" stop-color="#E522BB"/>
</linearGradient>
<linearGradient id="paint40_linear_555_278" x1="-1.32041e-06" y1="-7.14754e-08" x2="313" y2="310" gradientUnits="userSpaceOnUse">
<stop offset="0.495" stop-color="#E522BB" stop-opacity="0"/>
<stop offset="1" stop-color="#E522BB"/>
</linearGradient>
<linearGradient id="paint41_linear_555_278" x1="-1.32041e-06" y1="-7.14754e-08" x2="313" y2="310" gradientUnits="userSpaceOnUse">
<stop offset="0.495" stop-color="#E522BB" stop-opacity="0"/>
<stop offset="1" stop-color="#E522BB"/>
</linearGradient>
<linearGradient id="paint42_linear_555_278" x1="-1.32041e-06" y1="-7.14754e-08" x2="313" y2="310" gradientUnits="userSpaceOnUse">
<stop offset="0.495" stop-color="#E522BB" stop-opacity="0"/>
<stop offset="1" stop-color="#E522BB"/>
</linearGradient>
<linearGradient id="paint43_linear_555_278" x1="-1.32041e-06" y1="-7.14754e-08" x2="313" y2="310" gradientUnits="userSpaceOnUse">
<stop offset="0.495" stop-color="#E522BB" stop-opacity="0"/>
<stop offset="1" stop-color="#E522BB"/>
</linearGradient>
<linearGradient id="paint44_linear_555_278" x1="-1.32041e-06" y1="-7.14754e-08" x2="313" y2="310" gradientUnits="userSpaceOnUse">
<stop offset="0.495" stop-color="#E522BB" stop-opacity="0"/>
<stop offset="1" stop-color="#E522BB"/>
</linearGradient>
<linearGradient id="paint45_linear_555_278" x1="-1.32041e-06" y1="-7.14754e-08" x2="313" y2="310" gradientUnits="userSpaceOnUse">
<stop offset="0.495" stop-color="#E522BB" stop-opacity="0"/>
<stop offset="1" stop-color="#E522BB"/>
</linearGradient>
<linearGradient id="paint46_linear_555_278" x1="-1.32041e-06" y1="-7.14754e-08" x2="313" y2="310" gradientUnits="userSpaceOnUse">
<stop offset="0.495" stop-color="#E522BB" stop-opacity="0"/>
<stop offset="1" stop-color="#E522BB"/>
</linearGradient>
<linearGradient id="paint47_linear_555_278" x1="-1.32041e-06" y1="-7.14754e-08" x2="313" y2="310" gradientUnits="userSpaceOnUse">
<stop offset="0.495" stop-color="#E522BB" stop-opacity="0"/>
<stop offset="1" stop-color="#E522BB"/>
</linearGradient>
<linearGradient id="paint48_linear_555_278" x1="-1.32041e-06" y1="-7.14754e-08" x2="313" y2="310" gradientUnits="userSpaceOnUse">
<stop offset="0.495" stop-color="#E522BB" stop-opacity="0"/>
<stop offset="1" stop-color="#E522BB"/>
</linearGradient>
<linearGradient id="paint49_linear_555_278" x1="-1.32041e-06" y1="-7.14754e-08" x2="313" y2="310" gradientUnits="userSpaceOnUse">
<stop offset="0.495" stop-color="#E522BB" stop-opacity="0"/>
<stop offset="1" stop-color="#E522BB"/>
</linearGradient>
<linearGradient id="paint50_linear_555_278" x1="-1.32041e-06" y1="-7.14754e-08" x2="313" y2="310" gradientUnits="userSpaceOnUse">
<stop offset="0.495" stop-color="#E522BB" stop-opacity="0"/>
<stop offset="1" stop-color="#E522BB"/>
</linearGradient>
<linearGradient id="paint51_linear_555_278" x1="-1.32041e-06" y1="-7.14754e-08" x2="313" y2="310" gradientUnits="userSpaceOnUse">
<stop offset="0.495" stop-color="#E522BB" stop-opacity="0"/>
<stop offset="1" stop-color="#E522BB"/>
</linearGradient>
<linearGradient id="paint52_linear_555_278" x1="-1.32041e-06" y1="-7.14754e-08" x2="313" y2="310" gradientUnits="userSpaceOnUse">
<stop offset="0.495" stop-color="#E522BB" stop-opacity="0"/>
<stop offset="1" stop-color="#E522BB"/>
</linearGradient>
<linearGradient id="paint53_linear_555_278" x1="-1.32041e-06" y1="-7.14754e-08" x2="313" y2="310" gradientUnits="userSpaceOnUse">
<stop offset="0.495" stop-color="#E522BB" stop-opacity="0"/>
<stop offset="1" stop-color="#E522BB"/>
</linearGradient>
<linearGradient id="paint54_linear_555_278" x1="-1.32041e-06" y1="-7.14754e-08" x2="313" y2="310" gradientUnits="userSpaceOnUse">
<stop offset="0.495" stop-color="#E522BB" stop-opacity="0"/>
<stop offset="1" stop-color="#E522BB"/>
</linearGradient>
<linearGradient id="paint55_linear_555_278" x1="-1.32041e-06" y1="-7.14754e-08" x2="313" y2="310" gradientUnits="userSpaceOnUse">
<stop offset="0.495" stop-color="#E522BB" stop-opacity="0"/>
<stop offset="1" stop-color="#E522BB"/>
</linearGradient>
<linearGradient id="paint56_linear_555_278" x1="-1.32041e-06" y1="-7.14754e-08" x2="313" y2="310" gradientUnits="userSpaceOnUse">
<stop offset="0.495" stop-color="#E522BB" stop-opacity="0"/>
<stop offset="1" stop-color="#E522BB"/>
</linearGradient>
<linearGradient id="paint57_linear_555_278" x1="-1.32041e-06" y1="-7.14754e-08" x2="313" y2="310" gradientUnits="userSpaceOnUse">
<stop offset="0.495" stop-color="#E522BB" stop-opacity="0"/>
<stop offset="1" stop-color="#E522BB"/>
</linearGradient>
<linearGradient id="paint58_linear_555_278" x1="-1.32041e-06" y1="-7.14754e-08" x2="313" y2="310" gradientUnits="userSpaceOnUse">
<stop offset="0.495" stop-color="#E522BB" stop-opacity="0"/>
<stop offset="1" stop-color="#E522BB"/>
</linearGradient>
<linearGradient id="paint59_linear_555_278" x1="-1.32041e-06" y1="-7.14754e-08" x2="313" y2="310" gradientUnits="userSpaceOnUse">
<stop offset="0.495" stop-color="#E522BB" stop-opacity="0"/>
<stop offset="1" stop-color="#E522BB"/>
</linearGradient>
<linearGradient id="paint60_linear_555_278" x1="-1.32041e-06" y1="-7.14754e-08" x2="313" y2="310" gradientUnits="userSpaceOnUse">
<stop offset="0.495" stop-color="#E522BB" stop-opacity="0"/>
<stop offset="1" stop-color="#E522BB"/>
</linearGradient>
<linearGradient id="paint61_linear_555_278" x1="-1.32041e-06" y1="-7.14754e-08" x2="313" y2="310" gradientUnits="userSpaceOnUse">
<stop offset="0.495" stop-color="#E522BB" stop-opacity="0"/>
<stop offset="1" stop-color="#E522BB"/>
</linearGradient>
<linearGradient id="paint62_linear_555_278" x1="-1.32041e-06" y1="-7.14754e-08" x2="313" y2="310" gradientUnits="userSpaceOnUse">
<stop offset="0.495" stop-color="#E522BB" stop-opacity="0"/>
<stop offset="1" stop-color="#E522BB"/>
</linearGradient>
<linearGradient id="paint63_linear_555_278" x1="-1.32041e-06" y1="-7.14754e-08" x2="313" y2="310" gradientUnits="userSpaceOnUse">
<stop offset="0.495" stop-color="#E522BB" stop-opacity="0"/>
<stop offset="1" stop-color="#E522BB"/>
</linearGradient>
<linearGradient id="paint64_linear_555_278" x1="-1.32041e-06" y1="-7.14754e-08" x2="313" y2="310" gradientUnits="userSpaceOnUse">
<stop offset="0.495" stop-color="#E522BB" stop-opacity="0"/>
<stop offset="1" stop-color="#E522BB"/>
</linearGradient>
<linearGradient id="paint65_linear_555_278" x1="-1.32041e-06" y1="-7.14754e-08" x2="313" y2="310" gradientUnits="userSpaceOnUse">
<stop offset="0.495" stop-color="#E522BB" stop-opacity="0"/>
<stop offset="1" stop-color="#E522BB"/>
</linearGradient>
<linearGradient id="paint66_linear_555_278" x1="-1.32041e-06" y1="-7.14754e-08" x2="313" y2="310" gradientUnits="userSpaceOnUse">
<stop offset="0.495" stop-color="#E522BB" stop-opacity="0"/>
<stop offset="1" stop-color="#E522BB"/>
</linearGradient>
<linearGradient id="paint67_linear_555_278" x1="-1.32041e-06" y1="-7.14754e-08" x2="313" y2="310" gradientUnits="userSpaceOnUse">
<stop offset="0.495" stop-color="#E522BB" stop-opacity="0"/>
<stop offset="1" stop-color="#E522BB"/>
</linearGradient>
<linearGradient id="paint68_linear_555_278" x1="-1.32041e-06" y1="-7.14754e-08" x2="313" y2="310" gradientUnits="userSpaceOnUse">
<stop offset="0.495" stop-color="#E522BB" stop-opacity="0"/>
<stop offset="1" stop-color="#E522BB"/>
</linearGradient>
<linearGradient id="paint69_linear_555_278" x1="-1.32041e-06" y1="-7.14754e-08" x2="313" y2="310" gradientUnits="userSpaceOnUse">
<stop offset="0.495" stop-color="#E522BB" stop-opacity="0"/>
<stop offset="1" stop-color="#E522BB"/>
</linearGradient>
<linearGradient id="paint70_linear_555_278" x1="-1.32041e-06" y1="-7.14754e-08" x2="313" y2="310" gradientUnits="userSpaceOnUse">
<stop offset="0.495" stop-color="#E522BB" stop-opacity="0"/>
<stop offset="1" stop-color="#E522BB"/>
</linearGradient>
<linearGradient id="paint71_linear_555_278" x1="-1.32041e-06" y1="-7.14754e-08" x2="313" y2="310" gradientUnits="userSpaceOnUse">
<stop offset="0.495" stop-color="#E522BB" stop-opacity="0"/>
<stop offset="1" stop-color="#E522BB"/>
</linearGradient>
<linearGradient id="paint72_linear_555_278" x1="-1.32041e-06" y1="-7.14754e-08" x2="313" y2="310" gradientUnits="userSpaceOnUse">
<stop offset="0.495" stop-color="#E522BB" stop-opacity="0"/>
<stop offset="1" stop-color="#E522BB"/>
</linearGradient>
<linearGradient id="paint73_linear_555_278" x1="-1.32041e-06" y1="-7.14754e-08" x2="313" y2="310" gradientUnits="userSpaceOnUse">
<stop offset="0.495" stop-color="#E522BB" stop-opacity="0"/>
<stop offset="1" stop-color="#E522BB"/>
</linearGradient>
<linearGradient id="paint74_linear_555_278" x1="-1.32041e-06" y1="-7.14754e-08" x2="313" y2="310" gradientUnits="userSpaceOnUse">
<stop offset="0.495" stop-color="#E522BB" stop-opacity="0"/>
<stop offset="1" stop-color="#E522BB"/>
</linearGradient>
<linearGradient id="paint75_linear_555_278" x1="-1.32041e-06" y1="-7.14754e-08" x2="313" y2="310" gradientUnits="userSpaceOnUse">
<stop offset="0.495" stop-color="#E522BB" stop-opacity="0"/>
<stop offset="1" stop-color="#E522BB"/>
</linearGradient>
<linearGradient id="paint76_linear_555_278" x1="-1.32041e-06" y1="-7.14754e-08" x2="313" y2="310" gradientUnits="userSpaceOnUse">
<stop offset="0.495" stop-color="#E522BB" stop-opacity="0"/>
<stop offset="1" stop-color="#E522BB"/>
</linearGradient>
<linearGradient id="paint77_linear_555_278" x1="-1.32041e-06" y1="-7.14754e-08" x2="313" y2="310" gradientUnits="userSpaceOnUse">
<stop offset="0.495" stop-color="#E522BB" stop-opacity="0"/>
<stop offset="1" stop-color="#E522BB"/>
</linearGradient>
<linearGradient id="paint78_linear_555_278" x1="-1.32041e-06" y1="-7.14754e-08" x2="313" y2="310" gradientUnits="userSpaceOnUse">
<stop offset="0.495" stop-color="#E522BB" stop-opacity="0"/>
<stop offset="1" stop-color="#E522BB"/>
</linearGradient>
<linearGradient id="paint79_linear_555_278" x1="-1.32041e-06" y1="-7.14754e-08" x2="313" y2="310" gradientUnits="userSpaceOnUse">
<stop offset="0.495" stop-color="#E522BB" stop-opacity="0"/>
<stop offset="1" stop-color="#E522BB"/>
</linearGradient>
<linearGradient id="paint80_linear_555_278" x1="-1.32041e-06" y1="-7.14754e-08" x2="313" y2="310" gradientUnits="userSpaceOnUse">
<stop offset="0.495" stop-color="#E522BB" stop-opacity="0"/>
<stop offset="1" stop-color="#E522BB"/>
</linearGradient>
<linearGradient id="paint81_linear_555_278" x1="-1.32041e-06" y1="-7.14754e-08" x2="313" y2="310" gradientUnits="userSpaceOnUse">
<stop offset="0.495" stop-color="#E522BB" stop-opacity="0"/>
<stop offset="1" stop-color="#E522BB"/>
</linearGradient>
<linearGradient id="paint82_linear_555_278" x1="-1.32041e-06" y1="-7.14754e-08" x2="313" y2="310" gradientUnits="userSpaceOnUse">
<stop offset="0.495" stop-color="#E522BB" stop-opacity="0"/>
<stop offset="1" stop-color="#E522BB"/>
</linearGradient>
<linearGradient id="paint83_linear_555_278" x1="-1.32041e-06" y1="-7.14754e-08" x2="313" y2="310" gradientUnits="userSpaceOnUse">
<stop offset="0.495" stop-color="#E522BB" stop-opacity="0"/>
<stop offset="1" stop-color="#E522BB"/>
</linearGradient>
<linearGradient id="paint84_linear_555_278" x1="-1.32041e-06" y1="-7.14754e-08" x2="313" y2="310" gradientUnits="userSpaceOnUse">
<stop offset="0.495" stop-color="#E522BB" stop-opacity="0"/>
<stop offset="1" stop-color="#E522BB"/>
</linearGradient>
<linearGradient id="paint85_linear_555_278" x1="-1.32041e-06" y1="-7.14754e-08" x2="313" y2="310" gradientUnits="userSpaceOnUse">
<stop offset="0.495" stop-color="#E522BB" stop-opacity="0"/>
<stop offset="1" stop-color="#E522BB"/>
</linearGradient>
<linearGradient id="paint86_linear_555_278" x1="-1.32041e-06" y1="-7.14754e-08" x2="313" y2="310" gradientUnits="userSpaceOnUse">
<stop offset="0.495" stop-color="#E522BB" stop-opacity="0"/>
<stop offset="1" stop-color="#E522BB"/>
</linearGradient>
<linearGradient id="paint87_linear_555_278" x1="-1.32041e-06" y1="-7.14754e-08" x2="313" y2="310" gradientUnits="userSpaceOnUse">
<stop offset="0.495" stop-color="#E522BB" stop-opacity="0"/>
<stop offset="1" stop-color="#E522BB"/>
</linearGradient>
<linearGradient id="paint88_linear_555_278" x1="-1.32041e-06" y1="-7.14754e-08" x2="313" y2="310" gradientUnits="userSpaceOnUse">
<stop offset="0.495" stop-color="#E522BB" stop-opacity="0"/>
<stop offset="1" stop-color="#E522BB"/>
</linearGradient>
<linearGradient id="paint89_linear_555_278" x1="-1.32041e-06" y1="-7.14754e-08" x2="313" y2="310" gradientUnits="userSpaceOnUse">
<stop offset="0.495" stop-color="#E522BB" stop-opacity="0"/>
<stop offset="1" stop-color="#E522BB"/>
</linearGradient>
<linearGradient id="paint90_linear_555_278" x1="-1.32041e-06" y1="-7.14754e-08" x2="313" y2="310" gradientUnits="userSpaceOnUse">
<stop offset="0.495" stop-color="#E522BB" stop-opacity="0"/>
<stop offset="1" stop-color="#E522BB"/>
</linearGradient>
<linearGradient id="paint91_linear_555_278" x1="-1.32041e-06" y1="-7.14754e-08" x2="313" y2="310" gradientUnits="userSpaceOnUse">
<stop offset="0.495" stop-color="#E522BB" stop-opacity="0"/>
<stop offset="1" stop-color="#E522BB"/>
</linearGradient>
<linearGradient id="paint92_linear_555_278" x1="-1.32041e-06" y1="-7.14754e-08" x2="313" y2="310" gradientUnits="userSpaceOnUse">
<stop offset="0.495" stop-color="#E522BB" stop-opacity="0"/>
<stop offset="1" stop-color="#E522BB"/>
</linearGradient>
<linearGradient id="paint93_linear_555_278" x1="-1.32041e-06" y1="-7.14754e-08" x2="313" y2="310" gradientUnits="userSpaceOnUse">
<stop offset="0.495" stop-color="#E522BB" stop-opacity="0"/>
<stop offset="1" stop-color="#E522BB"/>
</linearGradient>
<linearGradient id="paint94_linear_555_278" x1="-1.32041e-06" y1="-7.14754e-08" x2="313" y2="310" gradientUnits="userSpaceOnUse">
<stop offset="0.495" stop-color="#E522BB" stop-opacity="0"/>
<stop offset="1" stop-color="#E522BB"/>
</linearGradient>
<linearGradient id="paint95_linear_555_278" x1="-1.32041e-06" y1="-7.14754e-08" x2="313" y2="310" gradientUnits="userSpaceOnUse">
<stop offset="0.495" stop-color="#E522BB" stop-opacity="0"/>
<stop offset="1" stop-color="#E522BB"/>
</linearGradient>
<linearGradient id="paint96_linear_555_278" x1="-1.32041e-06" y1="-7.14754e-08" x2="313" y2="310" gradientUnits="userSpaceOnUse">
<stop offset="0.495" stop-color="#E522BB" stop-opacity="0"/>
<stop offset="1" stop-color="#E522BB"/>
</linearGradient>
<linearGradient id="paint97_linear_555_278" x1="-1.32041e-06" y1="-7.14754e-08" x2="313" y2="310" gradientUnits="userSpaceOnUse">
<stop offset="0.495" stop-color="#E522BB" stop-opacity="0"/>
<stop offset="1" stop-color="#E522BB"/>
</linearGradient>
<linearGradient id="paint98_linear_555_278" x1="-1.32041e-06" y1="-7.14754e-08" x2="313" y2="310" gradientUnits="userSpaceOnUse">
<stop offset="0.495" stop-color="#E522BB" stop-opacity="0"/>
<stop offset="1" stop-color="#E522BB"/>
</linearGradient>
<linearGradient id="paint99_linear_555_278" x1="-1.32041e-06" y1="-7.14754e-08" x2="313" y2="310" gradientUnits="userSpaceOnUse">
<stop offset="0.495" stop-color="#E522BB" stop-opacity="0"/>
<stop offset="1" stop-color="#E522BB"/>
</linearGradient>
<linearGradient id="paint100_linear_555_278" x1="-1.32041e-06" y1="-7.14754e-08" x2="313" y2="310" gradientUnits="userSpaceOnUse">
<stop offset="0.495" stop-color="#E522BB" stop-opacity="0"/>
<stop offset="1" stop-color="#E522BB"/>
</linearGradient>
<linearGradient id="paint101_linear_555_278" x1="-1.32041e-06" y1="-7.14754e-08" x2="313" y2="310" gradientUnits="userSpaceOnUse">
<stop offset="0.495" stop-color="#E522BB" stop-opacity="0"/>
<stop offset="1" stop-color="#E522BB"/>
</linearGradient>
<linearGradient id="paint102_linear_555_278" x1="-1.32041e-06" y1="-7.14754e-08" x2="313" y2="310" gradientUnits="userSpaceOnUse">
<stop offset="0.495" stop-color="#E522BB" stop-opacity="0"/>
<stop offset="1" stop-color="#E522BB"/>
</linearGradient>
<linearGradient id="paint103_linear_555_278" x1="-1.32041e-06" y1="-7.14754e-08" x2="313" y2="310" gradientUnits="userSpaceOnUse">
<stop offset="0.495" stop-color="#E522BB" stop-opacity="0"/>
<stop offset="1" stop-color="#E522BB"/>
</linearGradient>
<linearGradient id="paint104_linear_555_278" x1="-1.32041e-06" y1="-7.14754e-08" x2="313" y2="310" gradientUnits="userSpaceOnUse">
<stop offset="0.495" stop-color="#E522BB" stop-opacity="0"/>
<stop offset="1" stop-color="#E522BB"/>
</linearGradient>
<linearGradient id="paint105_linear_555_278" x1="-1.32041e-06" y1="-7.14754e-08" x2="313" y2="310" gradientUnits="userSpaceOnUse">
<stop offset="0.495" stop-color="#E522BB" stop-opacity="0"/>
<stop offset="1" stop-color="#E522BB"/>
</linearGradient>
<linearGradient id="paint106_linear_555_278" x1="-1.32041e-06" y1="-7.14754e-08" x2="313" y2="310" gradientUnits="userSpaceOnUse">
<stop offset="0.495" stop-color="#E522BB" stop-opacity="0"/>
<stop offset="1" stop-color="#E522BB"/>
</linearGradient>
<linearGradient id="paint107_linear_555_278" x1="-1.32041e-06" y1="-7.14754e-08" x2="313" y2="310" gradientUnits="userSpaceOnUse">
<stop offset="0.495" stop-color="#E522BB" stop-opacity="0"/>
<stop offset="1" stop-color="#E522BB"/>
</linearGradient>
<linearGradient id="paint108_linear_555_278" x1="-1.32041e-06" y1="-7.14754e-08" x2="313" y2="310" gradientUnits="userSpaceOnUse">
<stop offset="0.495" stop-color="#E522BB" stop-opacity="0"/>
<stop offset="1" stop-color="#E522BB"/>
</linearGradient>
<linearGradient id="paint109_linear_555_278" x1="-1.32041e-06" y1="-7.14754e-08" x2="313" y2="310" gradientUnits="userSpaceOnUse">
<stop offset="0.495" stop-color="#E522BB" stop-opacity="0"/>
<stop offset="1" stop-color="#E522BB"/>
</linearGradient>
<linearGradient id="paint110_linear_555_278" x1="-1.32041e-06" y1="-7.14754e-08" x2="313" y2="310" gradientUnits="userSpaceOnUse">
<stop offset="0.495" stop-color="#E522BB" stop-opacity="0"/>
<stop offset="1" stop-color="#E522BB"/>
</linearGradient>
<linearGradient id="paint111_linear_555_278" x1="-1.32041e-06" y1="-7.14754e-08" x2="313" y2="310" gradientUnits="userSpaceOnUse">
<stop offset="0.495" stop-color="#E522BB" stop-opacity="0"/>
<stop offset="1" stop-color="#E522BB"/>
</linearGradient>
<linearGradient id="paint112_linear_555_278" x1="-1.32041e-06" y1="-7.14754e-08" x2="313" y2="310" gradientUnits="userSpaceOnUse">
<stop offset="0.495" stop-color="#E522BB" stop-opacity="0"/>
<stop offset="1" stop-color="#E522BB"/>
</linearGradient>
<linearGradient id="paint113_linear_555_278" x1="-1.32041e-06" y1="-7.14754e-08" x2="313" y2="310" gradientUnits="userSpaceOnUse">
<stop offset="0.495" stop-color="#E522BB" stop-opacity="0"/>
<stop offset="1" stop-color="#E522BB"/>
</linearGradient>
<linearGradient id="paint114_linear_555_278" x1="-1.32041e-06" y1="-7.14754e-08" x2="313" y2="310" gradientUnits="userSpaceOnUse">
<stop offset="0.495" stop-color="#E522BB" stop-opacity="0"/>
<stop offset="1" stop-color="#E522BB"/>
</linearGradient>
<linearGradient id="paint115_linear_555_278" x1="-1.32041e-06" y1="-7.14754e-08" x2="313" y2="310" gradientUnits="userSpaceOnUse">
<stop offset="0.495" stop-color="#E522BB" stop-opacity="0"/>
<stop offset="1" stop-color="#E522BB"/>
</linearGradient>
<linearGradient id="paint116_linear_555_278" x1="-1.32041e-06" y1="-7.14754e-08" x2="313" y2="310" gradientUnits="userSpaceOnUse">
<stop offset="0.495" stop-color="#E522BB" stop-opacity="0"/>
<stop offset="1" stop-color="#E522BB"/>
</linearGradient>
<linearGradient id="paint117_linear_555_278" x1="-1.32041e-06" y1="-7.14754e-08" x2="313" y2="310" gradientUnits="userSpaceOnUse">
<stop offset="0.495" stop-color="#E522BB" stop-opacity="0"/>
<stop offset="1" stop-color="#E522BB"/>
</linearGradient>
<linearGradient id="paint118_linear_555_278" x1="-1.32041e-06" y1="-7.14754e-08" x2="313" y2="310" gradientUnits="userSpaceOnUse">
<stop offset="0.495" stop-color="#E522BB" stop-opacity="0"/>
<stop offset="1" stop-color="#E522BB"/>
</linearGradient>
<linearGradient id="paint119_linear_555_278" x1="-1.32041e-06" y1="-7.14754e-08" x2="313" y2="310" gradientUnits="userSpaceOnUse">
<stop offset="0.495" stop-color="#E522BB" stop-opacity="0"/>
<stop offset="1" stop-color="#E522BB"/>
</linearGradient>
<linearGradient id="paint120_linear_555_278" x1="-1.32041e-06" y1="-7.14754e-08" x2="313" y2="310" gradientUnits="userSpaceOnUse">
<stop offset="0.495" stop-color="#E522BB" stop-opacity="0"/>
<stop offset="1" stop-color="#E522BB"/>
</linearGradient>
<linearGradient id="paint121_linear_555_278" x1="-1.32041e-06" y1="-7.14754e-08" x2="313" y2="310" gradientUnits="userSpaceOnUse">
<stop offset="0.495" stop-color="#E522BB" stop-opacity="0"/>
<stop offset="1" stop-color="#E522BB"/>
</linearGradient>
<linearGradient id="paint122_linear_555_278" x1="-1.32041e-06" y1="-7.14754e-08" x2="313" y2="310" gradientUnits="userSpaceOnUse">
<stop offset="0.495" stop-color="#E522BB" stop-opacity="0"/>
<stop offset="1" stop-color="#E522BB"/>
</linearGradient>
<linearGradient id="paint123_linear_555_278" x1="-1.32041e-06" y1="-7.14754e-08" x2="313" y2="310" gradientUnits="userSpaceOnUse">
<stop offset="0.495" stop-color="#E522BB" stop-opacity="0"/>
<stop offset="1" stop-color="#E522BB"/>
</linearGradient>
<linearGradient id="paint124_linear_555_278" x1="-1.32041e-06" y1="-7.14754e-08" x2="313" y2="310" gradientUnits="userSpaceOnUse">
<stop offset="0.495" stop-color="#E522BB" stop-opacity="0"/>
<stop offset="1" stop-color="#E522BB"/>
</linearGradient>
<linearGradient id="paint125_linear_555_278" x1="-1.32041e-06" y1="-7.14754e-08" x2="313" y2="310" gradientUnits="userSpaceOnUse">
<stop offset="0.495" stop-color="#E522BB" stop-opacity="0"/>
<stop offset="1" stop-color="#E522BB"/>
</linearGradient>
<linearGradient id="paint126_linear_555_278" x1="-1.32041e-06" y1="-7.14754e-08" x2="313" y2="310" gradientUnits="userSpaceOnUse">
<stop offset="0.495" stop-color="#E522BB" stop-opacity="0"/>
<stop offset="1" stop-color="#E522BB"/>
</linearGradient>
<linearGradient id="paint127_linear_555_278" x1="-1.32041e-06" y1="-7.14754e-08" x2="313" y2="310" gradientUnits="userSpaceOnUse">
<stop offset="0.495" stop-color="#E522BB" stop-opacity="0"/>
<stop offset="1" stop-color="#E522BB"/>
</linearGradient>
<linearGradient id="paint128_linear_555_278" x1="-1.32041e-06" y1="-7.14754e-08" x2="313" y2="310" gradientUnits="userSpaceOnUse">
<stop offset="0.495" stop-color="#E522BB" stop-opacity="0"/>
<stop offset="1" stop-color="#E522BB"/>
</linearGradient>
<linearGradient id="paint129_linear_555_278" x1="-1.32041e-06" y1="-7.14754e-08" x2="313" y2="310" gradientUnits="userSpaceOnUse">
<stop offset="0.495" stop-color="#E522BB" stop-opacity="0"/>
<stop offset="1" stop-color="#E522BB"/>
</linearGradient>
<linearGradient id="paint130_linear_555_278" x1="-1.32041e-06" y1="-7.14754e-08" x2="313" y2="310" gradientUnits="userSpaceOnUse">
<stop offset="0.495" stop-color="#E522BB" stop-opacity="0"/>
<stop offset="1" stop-color="#E522BB"/>
</linearGradient>
<linearGradient id="paint131_linear_555_278" x1="-1.32041e-06" y1="-7.14754e-08" x2="313" y2="310" gradientUnits="userSpaceOnUse">
<stop offset="0.495" stop-color="#E522BB" stop-opacity="0"/>
<stop offset="1" stop-color="#E522BB"/>
</linearGradient>
<linearGradient id="paint132_linear_555_278" x1="-1.32041e-06" y1="-7.14754e-08" x2="313" y2="310" gradientUnits="userSpaceOnUse">
<stop offset="0.495" stop-color="#E522BB" stop-opacity="0"/>
<stop offset="1" stop-color="#E522BB"/>
</linearGradient>
<linearGradient id="paint133_linear_555_278" x1="-1.32041e-06" y1="-7.14754e-08" x2="313" y2="310" gradientUnits="userSpaceOnUse">
<stop offset="0.495" stop-color="#E522BB" stop-opacity="0"/>
<stop offset="1" stop-color="#E522BB"/>
</linearGradient>
<linearGradient id="paint134_linear_555_278" x1="-1.32041e-06" y1="-7.14754e-08" x2="313" y2="310" gradientUnits="userSpaceOnUse">
<stop offset="0.495" stop-color="#E522BB" stop-opacity="0"/>
<stop offset="1" stop-color="#E522BB"/>
</linearGradient>
<linearGradient id="paint135_linear_555_278" x1="-1.32041e-06" y1="-7.14754e-08" x2="313" y2="310" gradientUnits="userSpaceOnUse">
<stop offset="0.495" stop-color="#E522BB" stop-opacity="0"/>
<stop offset="1" stop-color="#E522BB"/>
</linearGradient>
</defs>
</svg>
